<svg width="40" height="40" viewBox="0 0 40 40" fill="none" xmlns="http://www.w3.org/2000/svg">
<path d="M20 36.3614L34.2857 28.5712V14.3748L20 19.5757V36.3614ZM18.5714 17.0534L34.1518 11.3837L18.5714 5.71408L2.99107 11.3837L18.5714 17.0534ZM37.1429 11.4284V28.5712C37.1429 29.0921 37.0089 29.5757 36.7411 30.0221C36.4732 30.4685 36.1086 30.8182 35.6473 31.0712L19.933 39.6427C19.5164 39.8807 19.0625 39.9998 18.5714 39.9998C18.0804 39.9998 17.6265 39.8807 17.2098 39.6427L1.49554 31.0712C1.03423 30.8182 0.669643 30.4685 0.401786 30.0221C0.133929 29.5757 0 29.0921 0 28.5712V11.4284C0 10.8331 0.171131 10.29 0.513393 9.7989C0.855655 9.30783 1.30952 8.95812 1.875 8.74979L17.5893 3.03551C17.9167 2.91646 18.244 2.85693 18.5714 2.85693C18.8988 2.85693 19.2262 2.91646 19.5536 3.03551L35.2679 8.74979C35.8333 8.95812 36.2872 9.30783 36.6295 9.7989C36.9717 10.29 37.1429 10.8331 37.1429 11.4284Z" fill="#EDA74F"/>
</svg>
