<svg width="1584" height="104" viewBox="0 0 1584 104" fill="none" xmlns="http://www.w3.org/2000/svg">
<path d="M0.883 102V2.03099H18.508L26.122 22.476V102H0.883ZM69.832 102L11.458 27.834L18.508 2.03099L77.023 76.197L69.832 102ZM69.832 102L63.346 80.991V2.03099H88.585V102H69.832ZM116.228 102V2.03099H141.467V102H116.228ZM136.25 102V80.709H190.394V102H136.25ZM136.25 61.392V40.665H185.318V61.392H136.25ZM136.25 23.322V2.03099H189.548V23.322H136.25ZM214.498 102V2.03099H232.123L239.737 22.476V102H214.498ZM283.447 102L225.073 27.834L232.123 2.03099L290.638 76.197L283.447 102ZM283.447 102L276.961 80.991V2.03099H302.2V102H283.447ZM359.217 103.551C350.851 103.551 343.566 102.282 337.362 99.744C331.252 97.206 325.659 93.211 320.583 87.759L336.516 71.685C339.994 75.351 343.707 78.171 347.655 80.145C351.603 82.025 356.068 82.965 361.05 82.965C365.28 82.965 368.523 82.26 370.779 80.85C373.129 79.346 374.304 77.325 374.304 74.787C374.304 72.437 373.458 70.51 371.766 69.006C370.074 67.408 367.818 66.045 364.998 64.917C362.272 63.695 359.217 62.567 355.833 61.533C352.543 60.405 349.206 59.089 345.822 57.585C342.532 55.987 339.477 54.06 336.657 51.804C333.931 49.548 331.722 46.728 330.03 43.344C328.338 39.96 327.492 35.777 327.492 30.795C327.492 24.403 328.996 18.951 332.004 14.439C335.106 9.92699 339.383 6.44899 344.835 4.00499C350.287 1.561 356.632 0.338998 363.87 0.338998C371.108 0.338998 377.782 1.561 383.892 4.00499C390.002 6.44899 395.031 9.833 398.979 14.157L382.905 30.09C379.897 27.082 376.842 24.826 373.74 23.322C370.638 21.818 367.254 21.066 363.588 21.066C360.11 21.066 357.384 21.677 355.41 22.899C353.436 24.121 352.449 25.86 352.449 28.116C352.449 30.372 353.295 32.205 354.987 33.615C356.679 35.025 358.888 36.294 361.614 37.422C364.434 38.456 367.489 39.537 370.779 40.665C374.163 41.793 377.5 43.109 380.79 44.613C384.08 46.117 387.088 48.044 389.814 50.394C392.634 52.744 394.89 55.705 396.582 59.277C398.274 62.849 399.12 67.173 399.12 72.249C399.12 82.213 395.595 89.921 388.545 95.373C381.589 100.825 371.813 103.551 359.217 103.551ZM421.779 102V2.03099H447.018V102H421.779ZM441.801 102V80.709H495.945V102H441.801ZM441.801 61.392V40.665H490.869V61.392H441.801ZM441.801 23.322V2.03099H495.099V23.322H441.801ZM540.071 61.533V43.485H559.106C563.242 43.485 566.391 42.498 568.553 40.524C570.809 38.456 571.937 35.683 571.937 32.205C571.937 28.821 570.809 26.095 568.553 24.027C566.391 21.865 563.242 20.784 559.106 20.784H540.071V2.03099H562.631C569.399 2.03099 575.321 3.29999 580.397 5.83799C585.567 8.376 589.609 11.854 592.523 16.272C595.437 20.69 596.894 25.86 596.894 31.782C596.894 37.704 595.39 42.921 592.382 47.433C589.468 51.851 585.379 55.329 580.115 57.867C574.851 60.311 568.694 61.533 561.644 61.533H540.071ZM520.049 102V2.03099H545.288V102H520.049ZM574.193 102L545.147 59.136L567.848 53.637L603.38 102H574.193ZM679.331 66.186V47.433H699.071C701.515 47.433 703.724 46.963 705.698 46.023C707.766 44.989 709.411 43.485 710.633 41.511C711.855 39.537 712.466 37.093 712.466 34.179C712.466 31.265 711.855 28.821 710.633 26.847C709.411 24.779 707.766 23.275 705.698 22.335C703.724 21.301 701.515 20.784 699.071 20.784H679.331V2.03099H703.442C709.834 2.03099 715.615 3.34699 720.785 5.97899C725.955 8.51699 730.044 12.183 733.052 16.977C736.06 21.677 737.564 27.411 737.564 34.179C737.564 40.759 736.06 46.493 733.052 51.381C730.044 56.175 725.955 59.841 720.785 62.379C715.615 64.917 709.834 66.186 703.442 66.186H679.331ZM659.309 102V2.03099H684.548V102H659.309ZM758.543 102V2.03099H783.782V102H758.543ZM778.565 102V80.709H832.709V102H778.565ZM778.565 61.392V40.665H827.633V61.392H778.565ZM778.565 23.322V2.03099H831.863V23.322H778.565ZM878.312 102V2.73599H903.551V102H878.312ZM847.715 23.745V2.03099H934.148V23.745H847.715ZM975.519 61.533V43.485H994.554C998.69 43.485 1001.84 42.498 1004 40.524C1006.26 38.456 1007.39 35.683 1007.39 32.205C1007.39 28.821 1006.26 26.095 1004 24.027C1001.84 21.865 998.69 20.784 994.554 20.784H975.519V2.03099H998.079C1004.85 2.03099 1010.77 3.29999 1015.85 5.83799C1021.02 8.376 1025.06 11.854 1027.97 16.272C1030.89 20.69 1032.34 25.86 1032.34 31.782C1032.34 37.704 1030.84 42.921 1027.83 47.433C1024.92 51.851 1020.83 55.329 1015.56 57.867C1010.3 60.311 1004.14 61.533 997.092 61.533H975.519ZM955.497 102V2.03099H980.736V102H955.497ZM1009.64 102L980.595 59.136L1003.3 53.637L1038.83 102H1009.64ZM1105.44 103.833C1097.73 103.833 1090.64 102.517 1084.15 99.885C1077.66 97.253 1071.98 93.587 1067.09 88.887C1062.3 84.187 1058.54 78.688 1055.81 72.39C1053.08 65.998 1051.72 59.136 1051.72 51.804C1051.72 44.472 1053.04 37.704 1055.67 31.5C1058.39 25.202 1062.15 19.703 1066.95 15.003C1071.74 10.303 1077.38 6.68399 1083.87 4.146C1090.35 1.51399 1097.45 0.197991 1105.16 0.197991C1112.87 0.197991 1119.96 1.51399 1126.45 4.146C1132.94 6.68399 1138.58 10.303 1143.37 15.003C1148.16 19.703 1151.88 25.202 1154.51 31.5C1157.24 37.798 1158.6 44.613 1158.6 51.945C1158.6 59.277 1157.24 66.092 1154.51 72.39C1151.88 78.688 1148.16 84.234 1143.37 89.028C1138.58 93.728 1132.94 97.394 1126.45 100.026C1120.06 102.564 1113.06 103.833 1105.44 103.833ZM1105.16 81.273C1110.8 81.273 1115.69 80.051 1119.82 77.607C1123.96 75.163 1127.16 71.732 1129.41 67.314C1131.67 62.896 1132.8 57.726 1132.8 51.804C1132.8 47.48 1132.14 43.532 1130.82 39.96C1129.6 36.388 1127.77 33.333 1125.32 30.795C1122.88 28.163 1119.96 26.142 1116.58 24.732C1113.2 23.322 1109.39 22.617 1105.16 22.617C1099.52 22.617 1094.63 23.839 1090.5 26.283C1086.36 28.633 1083.16 32.017 1080.91 36.435C1078.65 40.853 1077.52 45.976 1077.52 51.804C1077.52 56.316 1078.13 60.405 1079.36 64.071C1080.67 67.643 1082.55 70.745 1085 73.377C1087.44 75.915 1090.35 77.889 1093.74 79.299C1097.12 80.615 1100.93 81.273 1105.16 81.273ZM1181.09 102V2.03099H1206.33V102H1181.09ZM1201.11 102V80.286H1249.34V102H1201.11ZM1270.96 102V2.03099H1296.2V102H1270.96ZM1290.98 102V80.709H1345.13V102H1290.98ZM1290.98 61.392V40.665H1340.05V61.392H1290.98ZM1290.98 23.322V2.03099H1344.28V23.322H1290.98ZM1410.4 103.551C1401.94 103.551 1394.47 101.812 1387.99 98.334C1381.59 94.762 1376.61 89.827 1373.04 83.529C1369.47 77.231 1367.68 70.087 1367.68 62.097V2.03099H1392.78V63.93C1392.78 67.502 1393.53 70.604 1395.04 73.236C1396.63 75.774 1398.75 77.748 1401.38 79.158C1404.11 80.474 1407.11 81.132 1410.4 81.132C1413.79 81.132 1416.75 80.474 1419.29 79.158C1421.83 77.748 1423.85 75.774 1425.35 73.236C1426.85 70.698 1427.61 67.643 1427.61 64.071V2.03099H1452.99V62.238C1452.99 70.228 1451.2 77.372 1447.63 83.67C1444.06 89.874 1439.07 94.762 1432.68 98.334C1426.38 101.812 1418.96 103.551 1410.4 103.551ZM1478.93 102V2.03099H1497.12L1535.47 59.982H1526.87L1565.08 2.03099H1583.27V102H1558.32V43.767L1562.26 44.895L1539.28 79.44H1522.92L1500.08 44.895L1504.03 43.767V102H1478.93Z" fill="#305B27" fill-opacity="0.12"/>
<path d="M0.883 102H-0.117V103H0.883V102ZM0.883 2.03099V1.03099H-0.117V2.03099H0.883ZM18.508 2.03099L19.4451 1.682L19.2027 1.03099H18.508V2.03099ZM26.122 22.476H27.122V22.2958L27.0591 22.127L26.122 22.476ZM26.122 102V103H27.122V102H26.122ZM69.832 102L69.0462 102.618L70.2659 104.168L70.7953 102.268L69.832 102ZM11.458 27.834L10.4934 27.5704L10.3605 28.0565L10.6722 28.4525L11.458 27.834ZM18.508 2.03099L19.2931 1.41159L18.0656 -0.144139L17.5434 1.76743L18.508 2.03099ZM77.023 76.197L77.9863 76.4655L78.1226 75.9763L77.8081 75.5776L77.023 76.197ZM69.832 102L68.8765 102.295L69.0942 103H69.832V102ZM63.346 80.991H62.346V81.1418L62.3905 81.286L63.346 80.991ZM63.346 2.03099V1.03099H62.346V2.03099H63.346ZM88.585 2.03099H89.585V1.03099H88.585V2.03099ZM88.585 102V103H89.585V102H88.585ZM1.883 102V2.03099H-0.117V102H1.883ZM0.883 3.03099H18.508V1.03099H0.883V3.03099ZM17.5709 2.37999L25.1849 22.825L27.0591 22.127L19.4451 1.682L17.5709 2.37999ZM25.122 22.476V102H27.122V22.476H25.122ZM26.122 101H0.883V103H26.122V101ZM70.6178 101.382L12.2438 27.2155L10.6722 28.4525L69.0462 102.618L70.6178 101.382ZM12.4226 28.0976L19.4726 2.29456L17.5434 1.76743L10.4934 27.5704L12.4226 28.0976ZM17.7229 2.6504L76.2379 76.8164L77.8081 75.5776L19.2931 1.41159L17.7229 2.6504ZM76.0597 75.9285L68.8687 101.732L70.7953 102.268L77.9863 76.4655L76.0597 75.9285ZM70.7875 101.705L64.3015 80.696L62.3905 81.286L68.8765 102.295L70.7875 101.705ZM64.346 80.991V2.03099H62.346V80.991H64.346ZM63.346 3.03099H88.585V1.03099H63.346V3.03099ZM87.585 2.03099V102H89.585V2.03099H87.585ZM88.585 101H69.832V103H88.585V101ZM116.228 102H115.228V103H116.228V102ZM116.228 2.03099V1.03099H115.228V2.03099H116.228ZM141.467 2.03099H142.467V1.03099H141.467V2.03099ZM141.467 102V103H142.467V102H141.467ZM136.25 102H135.25V103H136.25V102ZM136.25 80.709V79.709H135.25V80.709H136.25ZM190.394 80.709H191.394V79.709H190.394V80.709ZM190.394 102V103H191.394V102H190.394ZM136.25 61.392H135.25V62.392H136.25V61.392ZM136.25 40.665V39.665H135.25V40.665H136.25ZM185.318 40.665H186.318V39.665H185.318V40.665ZM185.318 61.392V62.392H186.318V61.392H185.318ZM136.25 23.322H135.25V24.322H136.25V23.322ZM136.25 2.03099V1.03099H135.25V2.03099H136.25ZM189.548 2.03099H190.548V1.03099H189.548V2.03099ZM189.548 23.322V24.322H190.548V23.322H189.548ZM117.228 102V2.03099H115.228V102H117.228ZM116.228 3.03099H141.467V1.03099H116.228V3.03099ZM140.467 2.03099V102H142.467V2.03099H140.467ZM141.467 101H116.228V103H141.467V101ZM137.25 102V80.709H135.25V102H137.25ZM136.25 81.709H190.394V79.709H136.25V81.709ZM189.394 80.709V102H191.394V80.709H189.394ZM190.394 101H136.25V103H190.394V101ZM137.25 61.392V40.665H135.25V61.392H137.25ZM136.25 41.665H185.318V39.665H136.25V41.665ZM184.318 40.665V61.392H186.318V40.665H184.318ZM185.318 60.392H136.25V62.392H185.318V60.392ZM137.25 23.322V2.03099H135.25V23.322H137.25ZM136.25 3.03099H189.548V1.03099H136.25V3.03099ZM188.548 2.03099V23.322H190.548V2.03099H188.548ZM189.548 22.322H136.25V24.322H189.548V22.322ZM214.498 102H213.498V103H214.498V102ZM214.498 2.03099V1.03099H213.498V2.03099H214.498ZM232.123 2.03099L233.06 1.682L232.818 1.03099H232.123V2.03099ZM239.737 22.476H240.737V22.2958L240.674 22.127L239.737 22.476ZM239.737 102V103H240.737V102H239.737ZM283.447 102L282.661 102.618L283.881 104.168L284.41 102.268L283.447 102ZM225.073 27.834L224.108 27.5704L223.976 28.0565L224.287 28.4525L225.073 27.834ZM232.123 2.03099L232.908 1.41159L231.681 -0.144139L231.158 1.76743L232.123 2.03099ZM290.638 76.197L291.601 76.4655L291.738 75.9763L291.423 75.5776L290.638 76.197ZM283.447 102L282.492 102.295L282.709 103H283.447V102ZM276.961 80.991H275.961V81.1418L276.006 81.286L276.961 80.991ZM276.961 2.03099V1.03099H275.961V2.03099H276.961ZM302.2 2.03099H303.2V1.03099H302.2V2.03099ZM302.2 102V103H303.2V102H302.2ZM215.498 102V2.03099H213.498V102H215.498ZM214.498 3.03099H232.123V1.03099H214.498V3.03099ZM231.186 2.37999L238.8 22.825L240.674 22.127L233.06 1.682L231.186 2.37999ZM238.737 22.476V102H240.737V22.476H238.737ZM239.737 101H214.498V103H239.737V101ZM284.233 101.382L225.859 27.2155L224.287 28.4525L282.661 102.618L284.233 101.382ZM226.038 28.0976L233.088 2.29456L231.158 1.76743L224.108 27.5704L226.038 28.0976ZM231.338 2.6504L289.853 76.8164L291.423 75.5776L232.908 1.41159L231.338 2.6504ZM289.675 75.9285L282.484 101.732L284.41 102.268L291.601 76.4655L289.675 75.9285ZM284.403 101.705L277.917 80.696L276.006 81.286L282.492 102.295L284.403 101.705ZM277.961 80.991V2.03099H275.961V80.991H277.961ZM276.961 3.03099H302.2V1.03099H276.961V3.03099ZM301.2 2.03099V102H303.2V2.03099H301.2ZM302.2 101H283.447V103H302.2V101ZM337.362 99.744L336.978 100.668L336.983 100.67L337.362 99.744ZM320.583 87.759L319.873 87.055L319.196 87.7373L319.851 88.4404L320.583 87.759ZM336.516 71.685L337.241 70.9967L336.532 70.2486L335.806 70.981L336.516 71.685ZM347.655 80.145L347.208 81.0394L347.216 81.0437L347.225 81.0479L347.655 80.145ZM370.779 80.85L371.309 81.698L371.318 81.6923L370.779 80.85ZM371.766 69.006L371.079 69.733L371.09 69.7434L371.102 69.7534L371.766 69.006ZM364.998 64.917L364.589 65.8295L364.607 65.8379L364.626 65.8455L364.998 64.917ZM355.833 61.533L355.509 62.4789L355.525 62.4844L355.541 62.4894L355.833 61.533ZM345.822 57.585L345.385 58.4845L345.4 58.4919L345.416 58.4988L345.822 57.585ZM336.657 51.804L336.019 52.5744L336.026 52.5797L336.032 52.5849L336.657 51.804ZM330.03 43.344L329.135 43.7912L330.03 43.344ZM332.004 14.439L331.18 13.8725L331.176 13.8783L331.172 13.8843L332.004 14.439ZM344.835 4.00499L344.426 3.09248V3.09248L344.835 4.00499ZM383.892 4.00499L384.263 3.07652V3.07652L383.892 4.00499ZM398.979 14.157L399.683 14.8672L400.365 14.1915L399.717 13.4827L398.979 14.157ZM382.905 30.09L382.198 30.7971L382.902 31.5011L383.609 30.8002L382.905 30.09ZM373.74 23.322L373.304 24.2218L373.74 23.322ZM355.41 22.899L354.884 22.0487V22.0487L355.41 22.899ZM354.987 33.615L355.627 32.8468L354.987 33.615ZM361.614 37.422L361.232 38.346L361.25 38.3538L361.27 38.3609L361.614 37.422ZM370.779 40.665L370.455 41.611L370.463 41.6137L370.779 40.665ZM380.79 44.613L380.374 45.5225L380.79 44.613ZM389.814 50.394L389.161 51.1514L389.167 51.1569L389.174 51.1622L389.814 50.394ZM396.582 59.277L395.678 59.7051L396.582 59.277ZM388.545 95.373L387.933 94.5819L387.928 94.5859L388.545 95.373ZM359.217 102.551C350.95 102.551 343.799 101.297 337.741 98.8185L336.983 100.67C343.333 103.267 350.752 104.551 359.217 104.551V102.551ZM337.745 98.8205C331.783 96.3439 326.306 92.4381 321.315 87.0776L319.851 88.4404C325.012 93.9839 330.72 98.0681 336.978 100.667L337.745 98.8205ZM321.293 88.463L337.226 72.389L335.806 70.981L319.873 87.055L321.293 88.463ZM335.79 72.3733C339.337 76.1116 343.142 79.0065 347.208 81.0394L348.102 79.2506C344.272 77.3355 340.651 74.5904 337.241 70.9967L335.79 72.3733ZM347.225 81.0479C351.325 83.0002 355.94 83.965 361.05 83.965V81.965C356.196 81.965 351.881 81.0498 348.085 79.2421L347.225 81.0479ZM361.05 83.965C365.367 83.965 368.826 83.2498 371.309 81.698L370.249 80.002C368.22 81.2702 365.193 81.965 361.05 81.965V83.965ZM371.318 81.6923C373.921 80.0262 375.304 77.7044 375.304 74.787H373.304C373.304 76.9456 372.337 78.6658 370.24 80.0077L371.318 81.6923ZM375.304 74.787C375.304 72.1637 374.345 69.9604 372.43 68.2586L371.102 69.7534C372.571 71.0596 373.304 72.7103 373.304 74.787H375.304ZM372.452 68.279C370.646 66.5727 368.272 65.1497 365.369 63.9885L364.626 65.8455C367.363 66.9403 369.502 68.2433 371.079 69.733L372.452 68.279ZM365.407 64.0045C362.637 62.7627 359.542 61.6207 356.125 60.5766L355.541 62.4894C358.892 63.5133 361.907 64.6273 364.589 65.8295L365.407 64.0045ZM356.157 60.5871C352.897 59.4691 349.587 58.164 346.228 56.6712L345.416 58.4988C348.825 60.014 352.189 61.3408 355.509 62.4789L356.157 60.5871ZM346.259 56.6855C343.035 55.1195 340.043 53.2321 337.282 51.0231L336.032 52.5849C338.911 54.8879 342.029 56.8545 345.385 58.4845L346.259 56.6855ZM337.294 51.0336C334.683 48.8723 332.558 46.1651 330.924 42.8968L329.135 43.7912C330.885 47.2909 333.179 50.2237 336.019 52.5744L337.294 51.0336ZM330.924 42.8968C329.32 39.6885 328.492 35.669 328.492 30.795H326.492C326.492 35.885 327.356 40.2315 329.135 43.7912L330.924 42.8968ZM328.492 30.795C328.492 24.5644 329.956 19.3138 332.836 14.9937L331.172 13.8843C328.036 18.5882 326.492 24.2416 326.492 30.795H328.492ZM332.828 15.0055C335.817 10.6584 339.944 7.29352 345.244 4.9175L344.426 3.09248C338.822 5.60447 334.395 9.19559 331.18 13.8725L332.828 15.0055ZM345.244 4.9175C350.543 2.54204 356.744 1.339 363.87 1.339V-0.661002C356.52 -0.661002 350.031 0.579954 344.426 3.09248L345.244 4.9175ZM363.87 1.339C370.993 1.339 377.54 2.54123 383.52 4.93347L384.263 3.07652C378.024 0.580762 371.222 -0.661002 363.87 -0.661002V1.339ZM383.52 4.93347C389.508 7.32847 394.406 10.6317 398.24 14.8313L399.717 13.4827C395.656 9.0343 390.496 5.56952 384.263 3.07652L383.52 4.93347ZM398.275 13.4468L382.201 29.3798L383.609 30.8002L399.683 14.8672L398.275 13.4468ZM383.612 29.3829C380.543 26.3137 377.399 23.9847 374.176 22.4222L373.304 24.2218C376.285 25.6673 379.251 27.8502 382.198 30.7971L383.612 29.3829ZM374.176 22.4222C370.93 20.8481 367.395 20.066 363.588 20.066V22.066C367.113 22.066 370.346 22.7879 373.304 24.2218L374.176 22.4222ZM363.588 20.066C360.01 20.066 357.076 20.6916 354.884 22.0487L355.936 23.7493C357.692 22.6623 360.21 22.066 363.588 22.066V20.066ZM354.884 22.0487C352.625 23.4466 351.449 25.5016 351.449 28.116H353.449C353.449 26.2184 354.246 24.7954 355.936 23.7493L354.884 22.0487ZM351.449 28.116C351.449 30.6605 352.42 32.778 354.347 34.3832L355.627 32.8468C354.169 31.632 353.449 30.0835 353.449 28.116H351.449ZM354.347 34.3832C356.138 35.8756 358.442 37.1916 361.232 38.346L361.996 36.498C359.334 35.3964 357.22 34.1744 355.627 32.8468L354.347 34.3832ZM361.27 38.3609C364.097 39.3976 367.159 40.481 370.455 41.6109L371.103 39.7191C367.819 38.593 364.771 37.5144 361.958 36.4831L361.27 38.3609ZM370.463 41.6137C373.812 42.7302 377.116 44.0331 380.374 45.5225L381.206 43.7035C377.884 42.1849 374.513 40.8558 371.095 39.7163L370.463 41.6137ZM380.374 45.5225C383.579 46.9874 386.507 48.8633 389.161 51.1514L390.467 49.6366C387.669 47.2246 384.581 45.2466 381.206 43.7035L380.374 45.5225ZM389.174 51.1622C391.874 53.4123 394.043 56.254 395.678 59.7051L397.486 58.8489C395.736 55.156 393.394 52.0757 390.454 49.6258L389.174 51.1622ZM395.678 59.7051C397.291 63.1109 398.12 67.2805 398.12 72.249H400.12C400.12 67.0655 399.256 62.5871 397.486 58.8489L395.678 59.7051ZM398.12 72.249C398.12 81.9452 394.707 89.3435 387.933 94.5819L389.157 96.1641C396.483 90.4985 400.12 82.4808 400.12 72.249H398.12ZM387.928 94.5859C381.209 99.852 371.682 102.551 359.217 102.551V104.551C371.944 104.551 381.969 101.798 389.162 96.1601L387.928 94.5859ZM421.779 102H420.779V103H421.779V102ZM421.779 2.03099V1.03099H420.779V2.03099H421.779ZM447.018 2.03099H448.018V1.03099H447.018V2.03099ZM447.018 102V103H448.018V102H447.018ZM441.801 102H440.801V103H441.801V102ZM441.801 80.709V79.709H440.801V80.709H441.801ZM495.945 80.709H496.945V79.709H495.945V80.709ZM495.945 102V103H496.945V102H495.945ZM441.801 61.392H440.801V62.392H441.801V61.392ZM441.801 40.665V39.665H440.801V40.665H441.801ZM490.869 40.665H491.869V39.665H490.869V40.665ZM490.869 61.392V62.392H491.869V61.392H490.869ZM441.801 23.322H440.801V24.322H441.801V23.322ZM441.801 2.03099V1.03099H440.801V2.03099H441.801ZM495.099 2.03099H496.099V1.03099H495.099V2.03099ZM495.099 23.322V24.322H496.099V23.322H495.099ZM422.779 102V2.03099H420.779V102H422.779ZM421.779 3.03099H447.018V1.03099H421.779V3.03099ZM446.018 2.03099V102H448.018V2.03099H446.018ZM447.018 101H421.779V103H447.018V101ZM442.801 102V80.709H440.801V102H442.801ZM441.801 81.709H495.945V79.709H441.801V81.709ZM494.945 80.709V102H496.945V80.709H494.945ZM495.945 101H441.801V103H495.945V101ZM442.801 61.392V40.665H440.801V61.392H442.801ZM441.801 41.665H490.869V39.665H441.801V41.665ZM489.869 40.665V61.392H491.869V40.665H489.869ZM490.869 60.392H441.801V62.392H490.869V60.392ZM442.801 23.322V2.03099H440.801V23.322H442.801ZM441.801 3.03099H495.099V1.03099H441.801V3.03099ZM494.099 2.03099V23.322H496.099V2.03099H494.099ZM495.099 22.322H441.801V24.322H495.099V22.322ZM540.071 61.533H539.071V62.533H540.071V61.533ZM540.071 43.485V42.485H539.071V43.485H540.071ZM568.553 40.524L569.228 41.2625L569.229 41.2612L568.553 40.524ZM568.553 24.027L567.846 24.7341L567.862 24.7495L567.878 24.7641L568.553 24.027ZM540.071 20.784H539.071V21.784H540.071V20.784ZM540.071 2.03099V1.03099H539.071V2.03099H540.071ZM580.397 5.83799L579.95 6.73245L579.957 6.73566L580.397 5.83799ZM592.382 47.433L591.55 46.8783L591.548 46.8824L592.382 47.433ZM580.115 57.867L580.536 58.774L580.543 58.7709L580.55 58.7678L580.115 57.867ZM520.049 102H519.049V103H520.049V102ZM520.049 2.03099V1.03099H519.049V2.03099H520.049ZM545.288 2.03099H546.288V1.03099H545.288V2.03099ZM545.288 102V103H546.288V102H545.288ZM574.193 102L573.366 102.561L573.663 103H574.193V102ZM545.147 59.136L544.912 58.1641L543.511 58.5035L544.32 59.697L545.147 59.136ZM567.848 53.637L568.654 53.0449L568.26 52.5084L567.613 52.6651L567.848 53.637ZM603.38 102V103H605.356L604.186 101.408L603.38 102ZM541.071 61.533V43.485H539.071V61.533H541.071ZM540.071 44.485H559.106V42.485H540.071V44.485ZM559.106 44.485C563.389 44.485 566.817 43.4631 569.228 41.2625L567.879 39.7855C565.965 41.5329 563.096 42.485 559.106 42.485V44.485ZM569.229 41.2612C571.721 38.977 572.937 35.9211 572.937 32.205H570.937C570.937 35.4449 569.898 37.935 567.878 39.7868L569.229 41.2612ZM572.937 32.205C572.937 28.5737 571.715 25.5684 569.229 23.2898L567.878 24.7641C569.904 26.6216 570.937 29.0683 570.937 32.205H572.937ZM569.26 23.3199C566.852 20.9118 563.411 19.784 559.106 19.784V21.784C563.073 21.784 565.93 22.8182 567.846 24.7341L569.26 23.3199ZM559.106 19.784H540.071V21.784H559.106V19.784ZM541.071 20.784V2.03099H539.071V20.784H541.071ZM540.071 3.03099H562.631V1.03099H540.071V3.03099ZM562.631 3.03099C569.274 3.03099 575.037 4.27599 579.95 6.73242L580.845 4.94357C575.605 2.324 569.525 1.03099 562.631 1.03099V3.03099ZM579.957 6.73566C584.981 9.20229 588.881 12.5663 591.689 16.8226L593.358 15.7214C590.337 11.1417 586.153 7.5497 580.838 4.94033L579.957 6.73566ZM591.689 16.8226C594.482 21.0582 595.894 26.0316 595.894 31.782H597.894C597.894 25.6884 596.392 20.3218 593.358 15.7214L591.689 16.8226ZM595.894 31.782C595.894 37.5255 594.439 42.5457 591.55 46.8783L593.214 47.9877C596.342 43.2963 597.894 37.8825 597.894 31.782H595.894ZM591.548 46.8824C588.743 51.1343 584.8 54.4982 579.681 56.9662L580.55 58.7678C585.959 56.1598 590.194 52.5677 593.217 47.9836L591.548 46.8824ZM579.694 56.96C574.587 59.331 568.58 60.533 561.644 60.533V62.533C568.809 62.533 575.115 61.291 580.536 58.774L579.694 56.96ZM561.644 60.533H540.071V62.533H561.644V60.533ZM521.049 102V2.03099H519.049V102H521.049ZM520.049 3.03099H545.288V1.03099H520.049V3.03099ZM544.288 2.03099V102H546.288V2.03099H544.288ZM545.288 101H520.049V103H545.288V101ZM575.021 101.439L545.975 58.575L544.32 59.697L573.366 102.561L575.021 101.439ZM545.383 60.1079L568.084 54.6089L567.613 52.6651L544.912 58.1641L545.383 60.1079ZM567.042 54.2291L602.575 102.592L604.186 101.408L568.654 53.0449L567.042 54.2291ZM603.38 101H574.193V103H603.38V101ZM679.331 66.186H678.331V67.186H679.331V66.186ZM679.331 47.433V46.433H678.331V47.433H679.331ZM705.698 46.023L706.128 46.9259L706.137 46.9217L706.145 46.9174L705.698 46.023ZM710.633 41.511L709.783 40.9846L710.633 41.511ZM710.633 26.847L709.772 27.3557L709.777 27.3646L709.783 27.3733L710.633 26.847ZM705.698 22.335L705.234 23.2208L705.259 23.2338L705.284 23.2454L705.698 22.335ZM679.331 20.784H678.331V21.784H679.331V20.784ZM679.331 2.03099V1.03099H678.331V2.03099H679.331ZM720.785 5.97899L720.331 6.87016L720.338 6.87346L720.344 6.87666L720.785 5.97899ZM733.052 16.977L732.205 17.5085L732.21 17.516L733.052 16.977ZM733.052 51.381L733.899 51.9125L733.904 51.9051L733.052 51.381ZM720.785 62.379L720.344 61.4813L720.785 62.379ZM659.309 102H658.309V103H659.309V102ZM659.309 2.03099V1.03099H658.309V2.03099H659.309ZM684.548 2.03099H685.548V1.03099H684.548V2.03099ZM684.548 102V103H685.548V102H684.548ZM680.331 66.186V47.433H678.331V66.186H680.331ZM679.331 48.433H699.071V46.433H679.331V48.433ZM699.071 48.433C701.646 48.433 704.005 47.937 706.128 46.9259L705.268 45.1201C703.443 45.989 701.384 46.433 699.071 46.433V48.433ZM706.145 46.9174C708.38 45.8001 710.164 44.1684 711.483 42.0373L709.783 40.9846C708.658 42.8016 707.152 44.1779 705.251 45.1286L706.145 46.9174ZM711.483 42.0374C712.825 39.8695 713.466 37.2318 713.466 34.179H711.466C711.466 36.9542 710.885 39.2045 709.783 40.9846L711.483 42.0374ZM713.466 34.179C713.466 31.1262 712.825 28.4885 711.483 26.3206L709.783 27.3733C710.885 29.1535 711.466 31.4038 711.466 34.179H713.466ZM711.494 26.3383C710.174 24.1044 708.378 22.4545 706.112 21.4246L705.284 23.2454C707.154 24.0955 708.648 25.4536 709.772 27.3557L711.494 26.3383ZM706.162 21.4492C704.031 20.3331 701.661 19.784 699.071 19.784V21.784C701.369 21.784 703.417 22.2689 705.234 23.2208L706.162 21.4492ZM699.071 19.784H679.331V21.784H699.071V19.784ZM680.331 20.784V2.03099H678.331V20.784H680.331ZM679.331 3.03099H703.442V1.03099H679.331V3.03099ZM703.442 3.03099C709.693 3.03099 715.316 4.31675 720.331 6.87016L721.239 5.08783C715.914 2.37723 709.975 1.03099 703.442 1.03099V3.03099ZM720.344 6.87666C725.351 9.33427 729.298 12.8748 732.205 17.5085L733.899 16.4455C730.79 11.4911 726.559 7.69972 721.226 5.08132L720.344 6.87666ZM732.21 17.516C735.095 22.0238 736.564 27.5611 736.564 34.179H738.564C738.564 27.2609 737.025 21.3302 733.894 16.4379L732.21 17.516ZM736.564 34.179C736.564 40.6016 735.098 46.1485 732.2 50.8569L733.904 51.9051C737.022 46.8375 738.564 40.9164 738.564 34.179H736.564ZM732.205 50.8495C729.298 55.4831 725.351 59.0237 720.344 61.4813L721.226 63.2767C726.559 60.6583 730.79 56.8669 733.899 51.9125L732.205 50.8495ZM720.344 61.4813C715.326 63.9449 709.698 65.186 703.442 65.186V67.186C709.97 67.186 715.904 65.8891 721.226 63.2767L720.344 61.4813ZM703.442 65.186H679.331V67.186H703.442V65.186ZM660.309 102V2.03099H658.309V102H660.309ZM659.309 3.03099H684.548V1.03099H659.309V3.03099ZM683.548 2.03099V102H685.548V2.03099H683.548ZM684.548 101H659.309V103H684.548V101ZM758.543 102H757.543V103H758.543V102ZM758.543 2.03099V1.03099H757.543V2.03099H758.543ZM783.782 2.03099H784.782V1.03099H783.782V2.03099ZM783.782 102V103H784.782V102H783.782ZM778.565 102H777.565V103H778.565V102ZM778.565 80.709V79.709H777.565V80.709H778.565ZM832.709 80.709H833.709V79.709H832.709V80.709ZM832.709 102V103H833.709V102H832.709ZM778.565 61.392H777.565V62.392H778.565V61.392ZM778.565 40.665V39.665H777.565V40.665H778.565ZM827.633 40.665H828.633V39.665H827.633V40.665ZM827.633 61.392V62.392H828.633V61.392H827.633ZM778.565 23.322H777.565V24.322H778.565V23.322ZM778.565 2.03099V1.03099H777.565V2.03099H778.565ZM831.863 2.03099H832.863V1.03099H831.863V2.03099ZM831.863 23.322V24.322H832.863V23.322H831.863ZM759.543 102V2.03099H757.543V102H759.543ZM758.543 3.03099H783.782V1.03099H758.543V3.03099ZM782.782 2.03099V102H784.782V2.03099H782.782ZM783.782 101H758.543V103H783.782V101ZM779.565 102V80.709H777.565V102H779.565ZM778.565 81.709H832.709V79.709H778.565V81.709ZM831.709 80.709V102H833.709V80.709H831.709ZM832.709 101H778.565V103H832.709V101ZM779.565 61.392V40.665H777.565V61.392H779.565ZM778.565 41.665H827.633V39.665H778.565V41.665ZM826.633 40.665V61.392H828.633V40.665H826.633ZM827.633 60.392H778.565V62.392H827.633V60.392ZM779.565 23.322V2.03099H777.565V23.322H779.565ZM778.565 3.03099H831.863V1.03099H778.565V3.03099ZM830.863 2.03099V23.322H832.863V2.03099H830.863ZM831.863 22.322H778.565V24.322H831.863V22.322ZM878.312 102H877.312V103H878.312V102ZM878.312 2.73599V1.73599H877.312V2.73599H878.312ZM903.551 2.73599H904.551V1.73599H903.551V2.73599ZM903.551 102V103H904.551V102H903.551ZM847.715 23.745H846.715V24.745H847.715V23.745ZM847.715 2.03099V1.03099H846.715V2.03099H847.715ZM934.148 2.03099H935.148V1.03099H934.148V2.03099ZM934.148 23.745V24.745H935.148V23.745H934.148ZM879.312 102V2.73599H877.312V102H879.312ZM878.312 3.73599H903.551V1.73599H878.312V3.73599ZM902.551 2.73599V102H904.551V2.73599H902.551ZM903.551 101H878.312V103H903.551V101ZM848.715 23.745V2.03099H846.715V23.745H848.715ZM847.715 3.03099H934.148V1.03099H847.715V3.03099ZM933.148 2.03099V23.745H935.148V2.03099H933.148ZM934.148 22.745H847.715V24.745H934.148V22.745ZM975.519 61.533H974.519V62.533H975.519V61.533ZM975.519 43.485V42.485H974.519V43.485H975.519ZM1004 40.524L1004.68 41.2625L1004.68 41.2612L1004 40.524ZM1004 24.027L1003.29 24.7341L1003.31 24.7495L1003.33 24.7641L1004 24.027ZM975.519 20.784H974.519V21.784H975.519V20.784ZM975.519 2.03099V1.03099H974.519V2.03099H975.519ZM1015.85 5.83799L1015.4 6.73245L1015.4 6.73566L1015.85 5.83799ZM1027.83 47.433L1027 46.8783L1027 46.8824L1027.83 47.433ZM1015.56 57.867L1015.98 58.774L1015.99 58.7709L1016 58.7678L1015.56 57.867ZM955.497 102H954.497V103H955.497V102ZM955.497 2.03099V1.03099H954.497V2.03099H955.497ZM980.736 2.03099H981.736V1.03099H980.736V2.03099ZM980.736 102V103H981.736V102H980.736ZM1009.64 102L1008.81 102.561L1009.11 103H1009.64V102ZM980.595 59.136L980.36 58.1641L978.958 58.5035L979.767 59.697L980.595 59.136ZM1003.3 53.637L1004.1 53.0449L1003.71 52.5084L1003.06 52.6651L1003.3 53.637ZM1038.83 102V103H1040.8L1039.63 101.408L1038.83 102ZM976.519 61.533V43.485H974.519V61.533H976.519ZM975.519 44.485H994.554V42.485H975.519V44.485ZM994.554 44.485C998.837 44.485 1002.27 43.4631 1004.68 41.2625L1003.33 39.7855C1001.41 41.5329 998.543 42.485 994.554 42.485V44.485ZM1004.68 41.2612C1007.17 38.977 1008.39 35.9211 1008.39 32.205H1006.39C1006.39 35.4449 1005.35 37.935 1003.33 39.7868L1004.68 41.2612ZM1008.39 32.205C1008.39 28.5737 1007.16 25.5684 1004.68 23.2898L1003.33 24.7641C1005.35 26.6216 1006.39 29.0683 1006.39 32.205H1008.39ZM1004.71 23.3199C1002.3 20.9118 998.859 19.784 994.554 19.784V21.784C998.521 21.784 1001.38 22.8182 1003.29 24.7341L1004.71 23.3199ZM994.554 19.784H975.519V21.784H994.554V19.784ZM976.519 20.784V2.03099H974.519V20.784H976.519ZM975.519 3.03099H998.079V1.03099H975.519V3.03099ZM998.079 3.03099C1004.72 3.03099 1010.48 4.27599 1015.4 6.73242L1016.29 4.94357C1011.05 2.324 1004.97 1.03099 998.079 1.03099V3.03099ZM1015.4 6.73566C1020.43 9.20229 1024.33 12.5663 1027.14 16.8226L1028.81 15.7214C1025.79 11.1417 1021.6 7.5497 1016.29 4.94033L1015.4 6.73566ZM1027.14 16.8226C1029.93 21.0582 1031.34 26.0316 1031.34 31.782H1033.34C1033.34 25.6884 1031.84 20.3218 1028.81 15.7214L1027.14 16.8226ZM1031.34 31.782C1031.34 37.5255 1029.89 42.5457 1027 46.8783L1028.66 47.9877C1031.79 43.2963 1033.34 37.8825 1033.34 31.782H1031.34ZM1027 46.8824C1024.19 51.1343 1020.25 54.4982 1015.13 56.9662L1016 58.7678C1021.41 56.1598 1025.64 52.5677 1028.66 47.9836L1027 46.8824ZM1015.14 56.96C1010.04 59.331 1004.03 60.533 997.092 60.533V62.533C1004.26 62.533 1010.56 61.291 1015.98 58.774L1015.14 56.96ZM997.092 60.533H975.519V62.533H997.092V60.533ZM956.497 102V2.03099H954.497V102H956.497ZM955.497 3.03099H980.736V1.03099H955.497V3.03099ZM979.736 2.03099V102H981.736V2.03099H979.736ZM980.736 101H955.497V103H980.736V101ZM1010.47 101.439L981.423 58.575L979.767 59.697L1008.81 102.561L1010.47 101.439ZM980.831 60.1079L1003.53 54.6089L1003.06 52.6651L980.36 58.1641L980.831 60.1079ZM1002.49 54.2291L1038.02 102.592L1039.63 101.408L1004.1 53.0449L1002.49 54.2291ZM1038.83 101H1009.64V103H1038.83V101ZM1084.15 99.885L1083.77 100.812L1084.15 99.885ZM1067.09 88.887L1066.39 89.6011L1066.4 89.6078L1067.09 88.887ZM1055.81 72.39L1054.89 72.7823L1054.89 72.7872L1055.81 72.39ZM1055.67 31.5L1054.75 31.1028L1054.75 31.1094L1055.67 31.5ZM1083.87 4.146L1084.23 5.07732L1084.24 5.07261L1083.87 4.146ZM1126.45 4.146L1126.07 5.07268L1126.09 5.07724L1126.45 4.146ZM1154.51 31.5L1153.59 31.8856L1153.59 31.8972L1154.51 31.5ZM1154.51 72.39L1153.59 71.9927L1153.59 72.0044L1154.51 72.39ZM1143.37 89.028L1144.07 89.7421L1144.08 89.7351L1143.37 89.028ZM1126.45 100.026L1126.82 100.955L1126.83 100.953L1126.45 100.026ZM1119.82 77.607L1120.33 78.4679L1119.82 77.607ZM1129.41 67.314L1128.52 66.8592L1129.41 67.314ZM1130.82 39.96L1129.88 40.2837L1129.88 40.2947L1129.88 40.3057L1130.82 39.96ZM1125.32 30.795L1124.59 31.4755L1124.6 31.4821L1124.6 31.4886L1125.32 30.795ZM1090.5 26.283L1090.99 27.1525L1091 27.1483L1091 27.1439L1090.5 26.283ZM1080.91 36.435L1080.02 35.9802L1080.91 36.435ZM1079.36 64.071L1078.41 64.3872L1078.41 64.402L1078.42 64.4167L1079.36 64.071ZM1085 73.377L1084.26 74.0574L1084.27 74.0641L1084.28 74.0706L1085 73.377ZM1093.74 79.299L1093.35 80.2221L1093.37 80.2267L1093.38 80.231L1093.74 79.299ZM1105.44 102.833C1097.85 102.833 1090.88 101.537 1084.53 98.9584L1083.77 100.812C1090.39 103.497 1097.62 104.833 1105.44 104.833V102.833ZM1084.53 98.9584C1078.15 96.3726 1072.58 92.7752 1067.78 88.1662L1066.4 89.6078C1071.38 94.3988 1077.17 98.1334 1083.77 100.812L1084.53 98.9584ZM1067.79 88.1729C1063.09 83.5655 1059.4 78.1748 1056.73 71.9928L1054.89 72.7872C1057.67 79.2012 1061.5 84.8085 1066.39 89.6011L1067.79 88.1729ZM1056.73 71.9977C1054.06 65.7365 1052.72 59.0087 1052.72 51.804H1050.72C1050.72 59.2633 1052.11 66.2595 1054.89 72.7823L1056.73 71.9977ZM1052.72 51.804C1052.72 44.5943 1054.01 37.9605 1056.59 31.8906L1054.75 31.1094C1052.06 37.4475 1050.72 44.3497 1050.72 51.804H1052.72ZM1056.59 31.8972C1059.26 25.7152 1062.95 20.3245 1067.65 15.7171L1066.25 14.2889C1061.36 19.0815 1057.53 24.6888 1054.75 31.1028L1056.59 31.8972ZM1067.65 15.7171C1072.34 11.1149 1077.87 7.56806 1084.23 5.07724L1083.5 3.21476C1076.9 5.79993 1071.14 9.49114 1066.25 14.2889L1067.65 15.7171ZM1084.24 5.07261C1090.6 2.49376 1097.57 1.19799 1105.16 1.19799V-0.802009C1097.34 -0.802009 1090.11 0.534228 1083.49 3.21939L1084.24 5.07261ZM1105.16 1.19799C1112.75 1.19799 1119.72 2.49376 1126.07 5.07261L1126.83 3.21939C1120.21 0.534228 1112.98 -0.802009 1105.16 -0.802009V1.19799ZM1126.09 5.07724C1132.45 7.56806 1137.98 11.1149 1142.67 15.7171L1144.07 14.2889C1139.18 9.49114 1133.42 5.79993 1126.82 3.21476L1126.09 5.07724ZM1142.67 15.7171C1147.37 20.322 1151.01 25.7087 1153.59 31.8856L1155.43 31.1144C1152.75 24.6953 1148.96 19.084 1144.07 14.2889L1142.67 15.7171ZM1153.59 31.8972C1156.26 38.0614 1157.6 44.7402 1157.6 51.945H1159.6C1159.6 44.4858 1158.21 37.5346 1155.43 31.1028L1153.59 31.8972ZM1157.6 51.945C1157.6 59.1498 1156.26 65.8286 1153.59 71.9928L1155.43 72.7872C1158.21 66.3554 1159.6 59.4042 1159.6 51.945H1157.6ZM1153.59 72.0044C1151 78.1831 1147.36 83.6196 1142.66 88.3209L1144.08 89.7351C1148.96 84.8484 1152.75 79.1929 1155.43 72.7756L1153.59 72.0044ZM1142.67 88.3139C1137.97 92.9187 1132.45 96.5143 1126.07 99.0994L1126.83 100.953C1133.43 98.2737 1139.18 94.5373 1144.07 89.7421L1142.67 88.3139ZM1126.08 99.0966C1119.82 101.583 1112.94 102.833 1105.44 102.833V104.833C1113.17 104.833 1120.3 103.545 1126.82 100.955L1126.08 99.0966ZM1105.16 82.273C1110.95 82.273 1116.02 81.0177 1120.33 78.4679L1119.31 76.7461C1115.36 79.0843 1110.65 80.273 1105.16 80.273V82.273ZM1120.33 78.4679C1124.64 75.9242 1127.96 72.3498 1130.3 67.7688L1128.52 66.8592C1126.35 71.1142 1123.28 74.4018 1119.31 76.7461L1120.33 78.4679ZM1130.3 67.7688C1132.64 63.1852 1133.8 57.8537 1133.8 51.804H1131.8C1131.8 57.5983 1130.69 62.6068 1128.52 66.8592L1130.3 67.7688ZM1133.8 51.804C1133.8 47.3779 1133.12 43.3109 1131.76 39.6143L1129.88 40.3057C1131.15 43.753 1131.8 47.5821 1131.8 51.804H1133.8ZM1131.77 39.6363C1130.5 35.936 1128.6 32.7521 1126.04 30.1014L1124.6 31.4886C1126.94 33.9139 1128.7 36.84 1129.88 40.2837L1131.77 39.6363ZM1126.06 30.1145C1123.51 27.3755 1120.48 25.2728 1116.97 23.8089L1116.2 25.6551C1119.45 27.0112 1122.25 28.9505 1124.59 31.4755L1126.06 30.1145ZM1116.97 23.8089C1113.44 22.3409 1109.5 21.617 1105.16 21.617V23.617C1109.28 23.617 1112.95 24.3031 1116.2 25.6551L1116.97 23.8089ZM1105.16 21.617C1099.37 21.617 1094.3 22.8723 1089.99 25.4221L1091 27.1439C1094.96 24.8057 1099.67 23.617 1105.16 23.617V21.617ZM1090 25.4135C1085.69 27.8643 1082.36 31.3961 1080.02 35.9802L1081.8 36.8898C1083.97 32.6379 1087.03 29.4017 1090.99 27.1525L1090 25.4135ZM1080.02 35.9802C1077.68 40.5617 1076.52 45.8455 1076.52 51.804H1078.52C1078.52 46.1065 1079.63 41.1443 1081.8 36.8898L1080.02 35.9802ZM1076.52 51.804C1076.52 56.4059 1077.15 60.6038 1078.41 64.3872L1080.31 63.7548C1079.12 60.2062 1078.52 56.2261 1078.52 51.804H1076.52ZM1078.42 64.4167C1079.78 68.1052 1081.72 71.3228 1084.26 74.0574L1085.73 72.6965C1083.38 70.1672 1081.57 67.1808 1080.3 63.7253L1078.42 64.4167ZM1084.28 74.0706C1086.82 76.7113 1089.85 78.7616 1093.35 80.2221L1094.12 78.3759C1090.86 77.0164 1088.06 75.1187 1085.72 72.6834L1084.28 74.0706ZM1093.38 80.231C1096.89 81.5987 1100.83 82.273 1105.16 82.273V80.273C1101.03 80.273 1097.35 79.6313 1094.1 78.367L1093.38 80.231ZM1181.09 102H1180.09V103H1181.09V102ZM1181.09 2.03099V1.03099H1180.09V2.03099H1181.09ZM1206.33 2.03099H1207.33V1.03099H1206.33V2.03099ZM1206.33 102V103H1207.33V102H1206.33ZM1201.11 102H1200.11V103H1201.11V102ZM1201.11 80.286V79.286H1200.11V80.286H1201.11ZM1249.34 80.286H1250.34V79.286H1249.34V80.286ZM1249.34 102V103H1250.34V102H1249.34ZM1182.09 102V2.03099H1180.09V102H1182.09ZM1181.09 3.03099H1206.33V1.03099H1181.09V3.03099ZM1205.33 2.03099V102H1207.33V2.03099H1205.33ZM1206.33 101H1181.09V103H1206.33V101ZM1202.11 102V80.286H1200.11V102H1202.11ZM1201.11 81.286H1249.34V79.286H1201.11V81.286ZM1248.34 80.286V102H1250.34V80.286H1248.34ZM1249.34 101H1201.11V103H1249.34V101ZM1270.96 102H1269.96V103H1270.96V102ZM1270.96 2.03099V1.03099H1269.96V2.03099H1270.96ZM1296.2 2.03099H1297.2V1.03099H1296.2V2.03099ZM1296.2 102V103H1297.2V102H1296.2ZM1290.98 102H1289.98V103H1290.98V102ZM1290.98 80.709V79.709H1289.98V80.709H1290.98ZM1345.13 80.709H1346.13V79.709H1345.13V80.709ZM1345.13 102V103H1346.13V102H1345.13ZM1290.98 61.392H1289.98V62.392H1290.98V61.392ZM1290.98 40.665V39.665H1289.98V40.665H1290.98ZM1340.05 40.665H1341.05V39.665H1340.05V40.665ZM1340.05 61.392V62.392H1341.05V61.392H1340.05ZM1290.98 23.322H1289.98V24.322H1290.98V23.322ZM1290.98 2.03099V1.03099H1289.98V2.03099H1290.98ZM1344.28 2.03099H1345.28V1.03099H1344.28V2.03099ZM1344.28 23.322V24.322H1345.28V23.322H1344.28ZM1271.96 102V2.03099H1269.96V102H1271.96ZM1270.96 3.03099H1296.2V1.03099H1270.96V3.03099ZM1295.2 2.03099V102H1297.2V2.03099H1295.2ZM1296.2 101H1270.96V103H1296.2V101ZM1291.98 102V80.709H1289.98V102H1291.98ZM1290.98 81.709H1345.13V79.709H1290.98V81.709ZM1344.13 80.709V102H1346.13V80.709H1344.13ZM1345.13 101H1290.98V103H1345.13V101ZM1291.98 61.392V40.665H1289.98V61.392H1291.98ZM1290.98 41.665H1340.05V39.665H1290.98V41.665ZM1339.05 40.665V61.392H1341.05V40.665H1339.05ZM1340.05 60.392H1290.98V62.392H1340.05V60.392ZM1291.98 23.322V2.03099H1289.98V23.322H1291.98ZM1290.98 3.03099H1344.28V1.03099H1290.98V3.03099ZM1343.28 2.03099V23.322H1345.28V2.03099H1343.28ZM1344.28 22.322H1290.98V24.322H1344.28V22.322ZM1387.99 98.334L1387.5 99.2069L1387.51 99.2112L1387.51 99.2153L1387.99 98.334ZM1373.04 83.529L1373.91 83.0357L1373.04 83.529ZM1367.68 2.03099V1.03099H1366.68V2.03099H1367.68ZM1392.78 2.03099H1393.78V1.03099H1392.78V2.03099ZM1395.04 73.236L1394.17 73.7321L1394.18 73.7507L1394.19 73.7688L1395.04 73.236ZM1401.38 79.158L1400.91 80.0395L1400.93 80.0494L1400.95 80.0585L1401.38 79.158ZM1419.29 79.158L1419.75 80.0458L1419.76 80.0391L1419.77 80.0322L1419.29 79.158ZM1425.35 73.236L1424.49 72.7262L1425.35 73.236ZM1427.61 2.03099V1.03099H1426.61V2.03099H1427.61ZM1452.99 2.03099H1453.99V1.03099H1452.99V2.03099ZM1447.63 83.67L1448.5 84.169L1448.5 84.1633L1447.63 83.67ZM1432.68 98.334L1433.17 99.2094L1433.17 99.2069L1432.68 98.334ZM1410.41 102.551C1402.09 102.551 1394.78 100.842 1388.46 97.4527L1387.51 99.2153C1394.17 102.782 1401.8 104.551 1410.41 104.551V102.551ZM1388.47 97.4611C1382.24 93.9772 1377.39 89.1727 1373.91 83.0357L1372.17 84.0223C1375.83 90.4813 1380.95 95.5468 1387.5 99.2069L1388.47 97.4611ZM1373.91 83.0357C1370.43 76.9033 1368.68 69.9324 1368.68 62.097H1366.68C1366.68 70.2416 1368.5 77.5587 1372.17 84.0223L1373.91 83.0357ZM1368.68 62.097V2.03099H1366.68V62.097H1368.68ZM1367.68 3.03099H1392.78V1.03099H1367.68V3.03099ZM1391.78 2.03099V63.93H1393.78V2.03099H1391.78ZM1391.78 63.93C1391.78 67.6448 1392.56 70.9241 1394.17 73.7321L1395.9 72.7399C1394.5 70.2839 1393.78 67.3592 1393.78 63.93H1391.78ZM1394.19 73.7688C1395.88 76.4528 1398.12 78.5472 1400.91 80.0395L1401.85 78.2765C1399.37 76.9487 1397.39 75.0952 1395.88 72.7032L1394.19 73.7688ZM1400.95 80.0585C1403.82 81.4455 1406.98 82.132 1410.41 82.132V80.132C1407.25 80.132 1404.39 79.5024 1401.82 78.2574L1400.95 80.0585ZM1410.41 82.132C1413.92 82.132 1417.04 81.4479 1419.75 80.0458L1418.83 78.2702C1416.46 79.5001 1413.66 80.132 1410.41 80.132V82.132ZM1419.77 80.0322C1422.47 78.5346 1424.62 76.4337 1426.21 73.7458L1424.49 72.7262C1423.08 75.1143 1421.18 76.9614 1418.8 78.2838L1419.77 80.0322ZM1426.21 73.7458C1427.82 71.0239 1428.61 67.7846 1428.61 64.071H1426.61C1426.61 67.5014 1425.89 70.3721 1424.49 72.7262L1426.21 73.7458ZM1428.61 64.071V2.03099H1426.61V64.071H1428.61ZM1427.61 3.03099H1452.99V1.03099H1427.61V3.03099ZM1451.99 2.03099V62.238H1453.99V2.03099H1451.99ZM1451.99 62.238C1451.99 70.0734 1450.24 77.0443 1446.76 83.1767L1448.5 84.1633C1452.16 77.6997 1453.99 70.3826 1453.99 62.238H1451.99ZM1446.76 83.171C1443.28 89.2147 1438.43 93.9751 1432.2 97.4611L1433.17 99.2069C1439.72 95.5489 1444.83 90.5333 1448.5 84.169L1446.76 83.171ZM1432.2 97.4586C1426.08 100.841 1418.82 102.551 1410.41 102.551V104.551C1419.1 104.551 1426.69 102.783 1433.17 99.2094L1432.2 97.4586ZM1478.93 102H1477.93V103H1478.93V102ZM1478.93 2.03099V1.03099H1477.93V2.03099H1478.93ZM1497.12 2.03099L1497.95 1.47911L1497.66 1.03099H1497.12V2.03099ZM1535.47 59.982V60.982H1537.33L1536.31 59.4301L1535.47 59.982ZM1526.87 59.982L1526.04 59.4315L1525.01 60.982H1526.87V59.982ZM1565.08 2.03099V1.03099H1564.54L1564.25 1.48052L1565.08 2.03099ZM1583.27 2.03099H1584.27V1.03099H1583.27V2.03099ZM1583.27 102V103H1584.27V102H1583.27ZM1558.32 102H1557.32V103H1558.32V102ZM1558.32 43.767L1558.59 42.8055L1557.32 42.4413V43.767H1558.32ZM1562.26 44.895L1563.1 45.4489L1563.85 44.3095L1562.54 43.9335L1562.26 44.895ZM1539.28 79.44V80.44H1539.82L1540.11 79.9939L1539.28 79.44ZM1522.92 79.44L1522.09 79.9916L1522.39 80.44H1522.92V79.44ZM1500.08 44.895L1499.81 43.9335L1498.5 44.3083L1499.25 45.4465L1500.08 44.895ZM1504.03 43.767H1505.03V42.4413L1503.76 42.8055L1504.03 43.767ZM1504.03 102V103H1505.03V102H1504.03ZM1479.93 102V2.03099H1477.93V102H1479.93ZM1478.93 3.03099H1497.12V1.03099H1478.93V3.03099ZM1496.29 2.58288L1534.64 60.5339L1536.31 59.4301L1497.95 1.47911L1496.29 2.58288ZM1535.47 58.982H1526.87V60.982H1535.47V58.982ZM1527.71 60.5325L1565.92 2.58147L1564.25 1.48052L1526.04 59.4315L1527.71 60.5325ZM1565.08 3.03099H1583.27V1.03099H1565.08V3.03099ZM1582.27 2.03099V102H1584.27V2.03099H1582.27ZM1583.27 101H1558.32V103H1583.27V101ZM1559.32 102V43.767H1557.32V102H1559.32ZM1558.04 44.7285L1561.99 45.8565L1562.54 43.9335L1558.59 42.8055L1558.04 44.7285ZM1561.43 44.3411L1538.45 78.8861L1540.11 79.9939L1563.1 45.4489L1561.43 44.3411ZM1539.28 78.44H1522.92V80.44H1539.28V78.44ZM1523.76 78.8884L1500.92 44.3434L1499.25 45.4465L1522.09 79.9916L1523.76 78.8884ZM1500.36 45.8565L1504.3 44.7285L1503.76 42.8055L1499.81 43.9335L1500.36 45.8565ZM1503.03 43.767V102H1505.03V43.767H1503.03ZM1504.03 101H1478.93V103H1504.03V101Z" fill="#305B27" fill-opacity="0.42"/>
</svg>
